<?xml version="1.0" encoding="utf-8"?>
<!-- Generator: Adobe Illustrator 19.2.1, SVG Export Plug-In . SVG Version: 6.00 Build 0)  -->
<svg version="1.1" id="layer" xmlns="http://www.w3.org/2000/svg" xmlns:xlink="http://www.w3.org/1999/xlink" x="0px" y="0px"
	 viewBox="18 233 608 178" style="enable-background:new 0 0 652 652;" xml:space="preserve">
<style type="text/css">
	.st0{fill-rule:evenodd;clip-rule:evenodd;fill:#135BA8;}
</style>
<g>
	<path class="st0" d="M610.2,236.5h0.5l0.6,0l0.5,0.1l0.5,0.1l0.5,0.1l0.5,0.2l0.5,0.1l0.4,0.2l0.5,0.2l0.4,0.3l0.5,0.2l0.4,0.3
		l0.4,0.3l0.4,0.3l0.4,0.3l0.4,0.3l0.3,0.4l0.3,0.4l0.3,0.4l0.3,0.4l0.3,0.4l0.3,0.5l0.2,0.5l0.2,0.4l0.2,0.5l0.2,0.5l0.1,0.5
		l0.1,0.5l0.1,0.5l0.1,0.5l0,0.6l0,0.5l0,0.6l0,0.5l-0.1,0.5l-0.1,0.5l-0.1,0.5l-0.1,0.5l-0.2,0.5l-0.2,0.5l-0.2,0.5l-0.2,0.5
		l-0.3,0.4l-0.3,0.4l-0.3,0.4l-0.3,0.4l-0.3,0.4l-0.3,0.3l-0.4,0.3l-0.4,0.3l-0.4,0.3l-0.4,0.3l-0.5,0.3l-0.4,0.3l-0.5,0.2l-0.5,0.2
		l-0.5,0.2l-0.5,0.1l-0.5,0.2l-0.5,0.1l-0.5,0.1l-0.6,0.1l-0.5,0h-1.1l-0.6,0l-0.5-0.1l-0.5-0.1l-0.5-0.1l-0.5-0.2l-0.5-0.1
		l-0.5-0.2l-0.5-0.2l-0.5-0.2l-0.4-0.3l-0.4-0.3l-0.4-0.3l-0.4-0.3l-0.4-0.3l-0.4-0.3l-0.4-0.3l-0.3-0.4l-0.3-0.4l-0.3-0.4l-0.3-0.4
		l-0.3-0.4l-0.2-0.5l-0.2-0.5l-0.2-0.5l-0.1-0.5l-0.2-0.5l-0.1-0.5l-0.1-0.5l-0.1-0.5l0-0.5v-1.1l0-0.6l0.1-0.5l0.1-0.5l0.1-0.5
		l0.2-0.5l0.1-0.5l0.2-0.5l0.2-0.4l0.2-0.5l0.3-0.5l0.3-0.4l0.3-0.4l0.3-0.4l0.3-0.4l0.4-0.4l0.4-0.3l0.4-0.3l0.4-0.3l0.4-0.3
		l0.4-0.3l0.4-0.2l0.5-0.3l0.5-0.2l0.5-0.2l0.5-0.1l0.5-0.2l0.5-0.1l0.5-0.1l0.5-0.1l0.6,0H610.2 M610.1,238.1l-0.4,0l-0.5,0l-0.4,0
		l-0.5,0.1l-0.4,0.1l-0.4,0.1l-0.4,0.2l-0.4,0.1l-0.4,0.2l-0.4,0.2l-0.3,0.2l-0.3,0.2l-0.3,0.2l-0.3,0.3l-0.3,0.3l-0.3,0.3l-0.3,0.3
		l-0.3,0.3l-0.3,0.3L603,242l-0.2,0.4l-0.2,0.4l-0.2,0.4l-0.2,0.4L602,244l-0.1,0.4l-0.1,0.4l-0.1,0.5l-0.1,0.4l0,0.4l0,0.5v0.9
		l0,0.5l0,0.5l0.1,0.4l0.1,0.5l0.1,0.4l0.1,0.4l0.2,0.4l0.2,0.4l0.2,0.4l0.2,0.4l0.2,0.3l0.2,0.4l0.3,0.3l0.3,0.3l0.3,0.3l0.3,0.3
		l0.3,0.3l0.3,0.3l0.3,0.3l0.3,0.2l0.4,0.2l0.4,0.2l0.4,0.2l0.4,0.1l0.4,0.1l0.4,0.1l0.4,0.1l0.5,0.1l0.4,0.1l0.4,0h0.9l0.4,0
		l0.4-0.1l0.4-0.1l0.4-0.1l0.4-0.1l0.4-0.2l0.4-0.1l0.4-0.2l0.4-0.2l0.4-0.2l0.3-0.2l0.3-0.3l0.3-0.3l0.3-0.3l0.3-0.3l0.3-0.3
		l0.3-0.3l0.3-0.3l0.3-0.3l0.2-0.4l0.2-0.4l0.2-0.4l0.2-0.4l0.1-0.4l0.1-0.4l0.1-0.4l0.1-0.5l0.1-0.4l0-0.5l0-0.4l0-0.5l0-0.4l0-0.5
		l0-0.4l-0.1-0.5l-0.1-0.4l-0.1-0.4l-0.1-0.4l-0.1-0.4l-0.2-0.4l-0.2-0.4l-0.2-0.4l-0.2-0.3l-0.3-0.4l-0.3-0.3l-0.3-0.3l-0.3-0.3
		l-0.3-0.3l-0.3-0.3l-0.3-0.3l-0.3-0.2l-0.3-0.2l-0.4-0.2l-0.4-0.2l-0.4-0.2l-0.4-0.1l-0.4-0.2l-0.4-0.1l-0.4-0.1l-0.4-0.1l-0.4,0
		l-0.4,0L610.1,238.1L610.1,238.1z M608.1,253.1h-1.9v-11.7l0.8-0.1l0.8-0.1l0.9-0.1h1.7l0.6,0.1l0.5,0.1l0.5,0.1l0.4,0.1l0.4,0.2
		l0.3,0.1l0.3,0.2l0.2,0.2l0.2,0.2l0.2,0.3l0.2,0.3l0.1,0.3l0.1,0.3l0,0.4l0,0.4l0,0.3l0,0.3l0,0.2l-0.1,0.3l-0.1,0.2l-0.1,0.2
		l-0.1,0.2l-0.2,0.2l-0.1,0.2l-0.2,0.2l-0.2,0.1l-0.2,0.1l-0.5,0.2l-0.5,0.2v0.1l0.4,0.1l0.4,0.2l0.3,0.3l0.3,0.3l0.2,0.4l0.2,0.5
		l0.1,0.5l0.1,0.6l0.2,1.2l0.2,0.8l0.2,0.6l0.1,0.3h-2l-0.1-0.2l-0.1-0.2l-0.1-0.3l-0.1-0.4l-0.2-0.9l-0.2-1.1l-0.1-0.5l-0.2-0.4
		l-0.1-0.2l-0.1-0.2l-0.1-0.1l-0.2-0.2l-0.1-0.1l-0.2-0.1l-0.2-0.1l-0.2,0l-0.4-0.1h-1.9V253.1z M608.1,246.6h2l0.5-0.1l0.3,0
		l0.3-0.1l0.2-0.1l0.2-0.1l0.2-0.1l0.2-0.2l0.2-0.2l0.1-0.2l0.1-0.2l0.1-0.2l0-0.2v-0.5l0-0.2l0-0.2l-0.1-0.2l-0.1-0.2l-0.1-0.1
		l-0.2-0.2l-0.2-0.1l-0.2-0.1l-0.2-0.1l-0.2-0.1l-0.3-0.1l-0.3-0.1l-0.3-0.1h-0.3l-0.4,0H609l-0.4,0l-0.3,0l-0.3,0V246.6z
		 M611.4,371.2l0-0.4l-0.1-0.4l-0.1-0.4l-0.1-0.4l-0.1-0.4l-0.1-0.4l-0.1-0.4l-0.2-0.3l-0.2-0.3l-0.2-0.3l-0.2-0.3l-0.2-0.3
		l-0.2-0.2l-0.3-0.2l-0.3-0.2l-0.3-0.2l-0.3-0.2l-0.3-0.1l-0.3-0.1l-0.3-0.1l-0.3-0.1l-0.3-0.1l-0.3-0.1l-0.3-0.1l-0.3-0.1l-0.3,0
		l-0.3,0l-0.3,0l-0.3,0h-0.3l-0.3,0l-0.3,0l-0.3,0l-0.3,0.1l-0.3,0.1l-0.3,0.1l-0.3,0.1l-0.3,0.1l-0.3,0.1l-0.3,0.1l-0.3,0.1
		l-0.3,0.2l-0.2,0.2l-0.2,0.2l-0.2,0.2l-0.2,0.2l-0.2,0.2l-0.2,0.2l-0.2,0.2l-0.2,0.2l-0.1,0.2l-0.1,0.2l-0.1,0.2l-0.1,0.2l-0.1,0.3
		l-0.1,0.3l-0.1,0.3l-0.1,0.3l-0.1,0.3l0,0.3l0,0.3l0,0.4l0,0.3v0.2l0,0.2l0,0.2l0,0.2l0,0.2l0,0.2l0,0.2l0.1,0.2l0.1,0.2l0.1,0.2
		l0.1,0.2l0.1,0.2l0.1,0.2l0.1,0.2l0.1,0.2l0.1,0.2l0.1,0.2l0.1,0.2l0.1,0.1l0.1,0.1l0.1,0.1l0.1,0.1l0.1,0.1l0.1,0.1l0.1,0.1
		l0.2,0.1l0.2,0.1l0.2,0.1l0.2,0.1l0.2,0.1l0.2,0.1l0.2,0.1l0.2,0.1l0.2,0.1l0.2,0.1l0.2,0.1l0.3,0.1l0.3,0.1l0.3,0.1l0.3,0.1
		l0.3,0.1l0.3,0.1l0.3,0.1l0.3,0.1l0.4,0.1l0.4,0.1l0.4,0.1l0.4,0.1l0.4,0.1l0.4,0.1l0.4,0.1l0.4,0.1l0.4,0.1l0.3,0.1l0.3,0.1
		l0.3,0.1l0.3,0.1l0.3,0.1l0.2,0.1l0.2,0.1l0.2,0.1l0.2,0.1l0.2,0.1l0.6,0.2l0.5,0.3l0.5,0.3l0.5,0.3l0.5,0.3l0.5,0.3l0.5,0.3
		l0.5,0.3l0.4,0.3l0.4,0.4l0.4,0.4l0.4,0.4l0.4,0.4l0.3,0.4l0.3,0.4l0.3,0.4l0.3,0.4l0.2,0.4l0.2,0.5l0.2,0.5l0.2,0.5l0.2,0.5
		l0.2,0.5l0.2,0.6l0.1,0.6l0.1,0.6l0.1,0.6l0.1,0.6l0.1,0.6l0.1,0.6l0,0.6l0,0.6l0,0.8l-0.1,0.8l-0.1,0.8l-0.1,0.7l-0.2,0.7
		l-0.2,0.7l-0.2,0.7l-0.3,0.7l-0.3,0.7l-0.4,0.7l-0.4,0.6l-0.4,0.6l-0.4,0.6l-0.5,0.6l-0.5,0.5l-0.5,0.5l-0.6,0.5l-0.6,0.5l-0.6,0.4
		l-0.7,0.4l-0.7,0.4l-0.7,0.4l-0.7,0.3l-0.7,0.3l-0.8,0.3l-0.8,0.2l-0.8,0.2l-0.8,0.2l-0.8,0.1l-0.8,0.1l-0.8,0.1l-0.8,0l-0.9,0
		l-0.8-0.1l-0.8-0.1l-0.8-0.1l-0.8-0.2l-0.8-0.2l-0.8-0.3l-0.8-0.3l-0.7-0.3l-0.7-0.4l-0.7-0.4l-0.7-0.4l-0.6-0.5l-0.6-0.5l-0.6-0.5
		l-0.5-0.5l-0.7-0.8l-0.6-0.8l-0.5-0.8l-0.5-0.8l-0.4-0.8l-0.4-0.8l-0.3-0.8l-0.3-0.8l-0.2-0.8l-0.2-0.8l-0.1-0.8l-0.1-0.8l-0.1-0.9
		l0-0.9l0-1.8h8.4l0,0.6l0,0.5l0,0.5l0,0.5l0.1,0.5l0.1,0.5l0.1,0.5l0.1,0.5l0.1,0.5l0.2,0.5l0.2,0.5l0.2,0.4l0.2,0.4l0.3,0.4
		l0.3,0.4l0.3,0.4l0.3,0.4l0.3,0.3l0.3,0.3l0.3,0.3l0.3,0.3l0.3,0.2l0.3,0.2l0.3,0.2l0.3,0.2l0.4,0.1l0.4,0.1l0.4,0.1l0.4,0.1
		l0.4,0.1l0.4,0l0.5,0h0.4l0.4,0l0.3,0l0.3,0l0.3-0.1l0.3-0.1l0.3-0.1l0.3-0.1l0.3-0.1l0.3-0.1l0.3-0.2l0.3-0.2l0.3-0.2l0.3-0.2
		l0.3-0.2l0.3-0.3l0.3-0.3l0.3-0.3l0.2-0.3l0.2-0.3l0.2-0.3l0.2-0.3l0.2-0.3l0.1-0.3l0.1-0.3l0.1-0.3l0.1-0.3l0.1-0.3l0.1-0.3l0-0.3
		l0-0.3v-0.3l0-0.4l0-0.4l0-0.3l0-0.3l-0.1-0.3l-0.1-0.3l-0.1-0.3l-0.1-0.3l-0.1-0.3l-0.1-0.3l-0.1-0.3l-0.2-0.3l-0.2-0.3l-0.2-0.3
		l-0.2-0.3l-0.2-0.3L610,389l-0.3-0.2l-0.3-0.2l-0.3-0.2l-0.3-0.2l-0.3-0.2l-0.4-0.2l-0.4-0.2l-0.4-0.2l-0.4-0.2l-0.5-0.2l-0.5-0.2
		l-0.5-0.2l-0.5-0.2l-0.6-0.2l-0.6-0.2l-1-0.4l-0.9-0.4l-0.9-0.4l-0.9-0.4l-0.8-0.4l-0.8-0.4l-0.7-0.4l-0.7-0.4l-0.7-0.4l-0.6-0.4
		l-0.6-0.4l-0.5-0.4l-0.5-0.4l-0.4-0.4l-0.4-0.4l-0.3-0.4l-0.3-0.4l-0.3-0.4l-0.3-0.4l-0.3-0.5l-0.2-0.5l-0.2-0.5l-0.2-0.5l-0.2-0.5
		l-0.2-0.6l-0.2-0.6l-0.1-0.6l-0.1-0.6l-0.1-0.6l-0.1-0.6l0-0.6l0-0.6l0-0.7l0.1-0.7l0.1-0.7l0.1-0.7l0.2-0.7l0.2-0.7l0.2-0.7
		l0.3-0.7l0.3-0.6l0.3-0.6l0.4-0.6l0.4-0.6l0.4-0.6l0.4-0.5l0.5-0.5l0.5-0.5l0.5-0.5l0.5-0.4l0.6-0.4l0.6-0.4l0.6-0.4l0.6-0.3
		l0.7-0.3l0.7-0.3l0.7-0.2l0.7-0.2l0.7-0.2l0.7-0.2l0.7-0.1l0.7-0.1l0.7-0.1l0.7,0l0.8,0l0.8,0.1l0.8,0.1l0.7,0.1l0.7,0.1l0.7,0.2
		l0.7,0.2l0.7,0.2l0.7,0.2l0.6,0.3l0.6,0.3l0.6,0.3l0.6,0.4l0.5,0.4l0.5,0.4l0.5,0.4l0.6,0.6l0.6,0.6l0.5,0.6l0.4,0.6l0.4,0.7
		l0.4,0.7l0.3,0.7l0.3,0.7l0.2,0.7l0.2,0.7l0.2,0.7l0.1,0.8l0.1,0.8l0.1,0.8l0,1.6h-8.6l0-0.4L611.4,371.2z M281.2,371.2l0-0.4
		l-0.1-0.4L281,370l-0.1-0.4l-0.1-0.4l-0.1-0.4l-0.1-0.4l-0.2-0.3l-0.2-0.3l-0.2-0.3l-0.2-0.3l-0.2-0.3l-0.2-0.2l-0.3-0.2l-0.3-0.2
		l-0.3-0.2l-0.3-0.2l-0.3-0.1l-0.3-0.1l-0.3-0.1l-0.3-0.1l-0.3-0.1l-0.3-0.1l-0.3-0.1l-0.3-0.1l-0.3,0l-0.3,0l-0.3,0l-0.3,0h-0.3
		l-0.3,0l-0.3,0l-0.3,0l-0.3,0.1l-0.3,0.1l-0.3,0.1l-0.3,0.1l-0.3,0.1l-0.3,0.1l-0.3,0.1l-0.3,0.1l-0.3,0.2l-0.2,0.2l-0.2,0.2
		l-0.2,0.2l-0.2,0.2l-0.2,0.2l-0.2,0.2l-0.2,0.2l-0.2,0.2l-0.2,0.2l-0.1,0.2l-0.1,0.2l-0.1,0.2l-0.1,0.3l-0.1,0.3l-0.1,0.3l-0.1,0.3
		l-0.1,0.3l0,0.3l0,0.3l0,0.4v0.3l0,0.2l0,0.2l0,0.2l0,0.2l0,0.2l0,0.2l0,0.2l0,0.2l0.1,0.2l0.1,0.2l0.1,0.2l0.1,0.2l0.1,0.2
		l0.1,0.2l0.1,0.2l0.1,0.2l0.1,0.2l0.1,0.2l0.1,0.1l0.1,0.1l0.1,0.1l0.1,0.1l0.1,0.1l0.1,0.1l0.2,0.1l0.2,0.1l0.2,0.1l0.2,0.1
		l0.2,0.1l0.2,0.1l0.2,0.1l0.2,0.1l0.2,0.1l0.2,0.1l0.2,0.1l0.2,0.1l0.3,0.1l0.3,0.1l0.3,0.1l0.3,0.1l0.3,0.1l0.3,0.1l0.3,0.1
		l0.4,0.1l0.4,0.1l0.4,0.1l0.4,0.1l0.4,0.1l0.4,0.1l0.4,0.1l0.4,0.1l0.4,0.1l0.3,0.1l0.3,0.1l0.3,0.1l0.3,0.1l0.3,0.1l0.3,0.1
		l0.2,0.1l0.2,0.1l0.2,0.1l0.2,0.1l0.2,0.1l0.6,0.2l0.5,0.3l0.5,0.3l0.5,0.3l0.5,0.3l0.5,0.3l0.5,0.3l0.5,0.3l0.4,0.3l0.4,0.4
		l0.4,0.4l0.4,0.4l0.4,0.4l0.3,0.4l0.3,0.4l0.3,0.4l0.3,0.4l0.2,0.4l0.2,0.5l0.2,0.5l0.2,0.5l0.2,0.5l0.2,0.5l0.2,0.6l0.1,0.6
		l0.1,0.6l0.1,0.6l0.1,0.6l0.1,0.6l0.1,0.6l0,0.6l0,0.6l0,0.8l-0.1,0.8l-0.1,0.8l-0.1,0.7l-0.2,0.7l-0.2,0.7l-0.2,0.7l-0.3,0.7
		l-0.3,0.7l-0.4,0.7l-0.4,0.6l-0.4,0.6l-0.4,0.6l-0.5,0.6l-0.5,0.5l-0.5,0.5l-0.6,0.5l-0.6,0.5l-0.6,0.4l-0.7,0.4l-0.7,0.4l-0.7,0.4
		l-0.7,0.3l-0.7,0.3l-0.8,0.3l-0.8,0.2l-0.8,0.2l-0.8,0.2l-0.8,0.1l-0.8,0.1l-0.8,0.1l-0.8,0l-0.8,0l-0.8-0.1l-0.8-0.1l-0.8-0.1
		l-0.8-0.2l-0.8-0.2l-0.8-0.3l-0.8-0.3l-0.7-0.3l-0.7-0.4l-0.7-0.4l-0.7-0.4l-0.6-0.5l-0.6-0.5l-0.6-0.5l-0.5-0.5l-0.7-0.8l-0.6-0.8
		l-0.5-0.8l-0.5-0.8l-0.4-0.8l-0.4-0.8l-0.3-0.8l-0.3-0.8l-0.2-0.8l-0.2-0.8l-0.1-0.8l-0.1-0.8l-0.1-0.9l0-0.9l0-1.8h8.4l0,0.6
		l0,0.5l0,0.5l0,0.5l0.1,0.5l0.1,0.5l0.1,0.5l0.1,0.5l0.1,0.5l0.1,0.5l0.2,0.5l0.2,0.4l0.2,0.4l0.3,0.4l0.3,0.4l0.3,0.4l0.3,0.4
		l0.3,0.3l0.3,0.3l0.3,0.3l0.3,0.3l0.3,0.2l0.3,0.2l0.3,0.2l0.4,0.2l0.4,0.1l0.4,0.1l0.4,0.1l0.4,0.1l0.4,0.1l0.4,0l0.5,0h0.4l0.4,0
		l0.4,0l0.3,0l0.3-0.1l0.3-0.1l0.3-0.1l0.3-0.1l0.3-0.1l0.3-0.1l0.3-0.2l0.3-0.2l0.3-0.2l0.3-0.2l0.3-0.2l0.3-0.3l0.3-0.3l0.3-0.3
		l0.2-0.3l0.2-0.3l0.2-0.3l0.2-0.3l0.2-0.3l0.1-0.3l0.1-0.3l0.1-0.3l0.1-0.3l0.1-0.3l0.1-0.3l0-0.3l0-0.3v-0.3l0-0.4l0-0.4l0-0.3
		l0-0.3l-0.1-0.3l-0.1-0.3l-0.1-0.3l-0.1-0.3l-0.1-0.3l-0.1-0.3l-0.1-0.3l-0.2-0.3l-0.2-0.3l-0.2-0.3l-0.2-0.3l-0.2-0.3l-0.2-0.3
		l-0.3-0.2l-0.3-0.2l-0.3-0.2l-0.3-0.2l-0.3-0.2l-0.4-0.2l-0.4-0.2l-0.4-0.2l-0.4-0.2l-0.5-0.2l-0.5-0.2l-0.5-0.2l-0.5-0.2l-0.6-0.2
		l-0.6-0.2l-1-0.4l-0.9-0.4l-0.9-0.4l-0.9-0.4l-0.8-0.4l-0.8-0.4l-0.7-0.4l-0.7-0.4l-0.7-0.4l-0.6-0.4l-0.6-0.4l-0.5-0.4l-0.5-0.4
		l-0.4-0.4l-0.4-0.4l-0.3-0.4l-0.3-0.4l-0.3-0.4l-0.3-0.4l-0.3-0.5l-0.2-0.5l-0.2-0.5l-0.2-0.5l-0.2-0.5l-0.2-0.6l-0.2-0.6l-0.1-0.6
		l-0.1-0.6l-0.1-0.6l-0.1-0.6l0-0.6l0-0.6l0-0.7l0.1-0.7l0.1-0.7l0.1-0.7l0.2-0.7l0.2-0.7l0.2-0.7l0.3-0.7l0.3-0.6l0.3-0.6l0.4-0.6
		l0.4-0.6l0.4-0.6l0.5-0.5l0.5-0.5l0.5-0.5l0.5-0.5l0.5-0.4l0.6-0.4l0.6-0.4l0.6-0.4l0.6-0.3l0.7-0.3l0.7-0.3l0.7-0.2l0.7-0.2
		l0.7-0.2l0.7-0.2l0.7-0.1l0.7-0.1l0.7-0.1l0.7,0l0.8,0l0.8,0.1l0.8,0.1l0.7,0.1l0.7,0.1l0.7,0.2l0.7,0.2l0.7,0.2l0.7,0.2l0.6,0.3
		l0.6,0.3l0.6,0.3l0.6,0.4l0.5,0.4l0.5,0.4l0.5,0.4l0.6,0.6l0.6,0.6l0.5,0.6l0.4,0.6l0.4,0.7l0.4,0.7l0.3,0.7l0.3,0.7l0.2,0.7
		l0.2,0.7l0.2,0.7l0.1,0.8l0.1,0.8l0.1,0.8l0,1.6h-8.6v-0.4L281.2,371.2z M22.7,407.5h-1.9V235h1.9V407.5z M27.2,407.5h1.9V235h-1.9
		V407.5z M33.7,407.5h1.9V235h-1.9V407.5z M40.2,407.5h1.9V235h-1.9V407.5z M46.6,407.5h1.9V235h-1.9V407.5z M53.1,407.5H55V235
		h-1.9V407.5z M61.5,407.5h-1.9V235h1.9V407.5z M66.1,407.5H68V235h-1.9V407.5z M139.2,407.5h-1.9V235h1.9V407.5z M145.7,407.5h-1.9
		V235h1.9V407.5z M152.2,407.5h-1.9V235h1.9V407.5z M158.6,407.5h-1.9V235h1.9V407.5z M165.1,407.5h-1.9V235h1.9V407.5z
		 M171.6,407.5h-1.9V235h1.9V407.5z M178.1,407.5h-1.9V235h1.9V407.5z M184.5,407.5h-1.9V235h1.9V407.5z M250.9,334H265v-99h-14.1
		v42.4h-40.2V235h-14.1v99h14.1v-42.8h40.2V334z M289.3,291.6h22.6l-22.6-32.2V291.6z M289.3,304v30h-14.1v-99h14.3l69.3,99h-17.3
		l-21-30H289.3z M439.3,235v99h-14.1l-52.2-74.6V334h-14.1v-99h14.3l52,74.4V235H439.3z M527,235v99h-14.1l-52.2-74.6V334h-14.1v-99
		h14.3l52,74.4V235H527z M551.3,304v30h-14.1v-99h14.3l69.3,99h-17.3l-21-30H551.3z M551.3,291.6h22.5l-22.5-32.2V291.6z
		 M196.6,351.5h8.8v-10.6h-8.8V351.5z M205.4,407.5h-8.8v-49.8h8.8V407.5z M253.5,376.2v31.2h-8.8v-28.8l0-1l-0.1-0.9l-0.1-0.9
		l-0.1-0.8l-0.1-0.8l-0.1-0.7l-0.2-0.7l-0.2-0.7l-0.2-0.6l-0.2-0.6l-0.3-0.6l-0.3-0.5l-0.3-0.5l-0.4-0.5l-0.4-0.5l-0.4-0.5l-0.4-0.4
		l-0.5-0.4l-0.5-0.3l-0.5-0.3l-0.5-0.3l-0.6-0.2l-0.6-0.2l-0.6-0.2l-0.6-0.1l-0.6-0.1l-0.7-0.1l-0.7-0.1l-0.7,0l-0.7,0l-0.7,0
		l-0.7,0l-0.6,0l-0.6,0l-0.5,0l-0.5,0.1l-0.4,0.1l-0.4,0.1l-0.4,0.1l-0.3,0.1l-0.3,0.1l-0.3,0.1l-0.3,0.1l-0.3,0.2l-0.3,0.2
		l-0.4,0.2l-0.4,0.2l-0.4,0.2l-0.4,0.2l-0.3,0.2l-0.3,0.2l-0.3,0.2l-0.3,0.2l-0.3,0.2l-0.3,0.2l-0.3,0.2l-0.2,0.3l-0.2,0.3l-0.2,0.3
		l-0.2,0.3l-0.2,0.3l-0.2,0.3l-0.2,0.4l-0.1,0.2l-0.1,0.2l-0.1,0.2l-0.1,0.2l-0.1,0.2l-0.1,0.2l-0.1,0.2l-0.1,0.2l-0.1,0.2l-0.1,0.2
		l-0.1,0.3l-0.1,0.3L220,374l-0.1,0.3l-0.1,0.3l-0.1,0.3l-0.1,0.3l-0.1,0.3l-0.1,0.4l0,0.4l0,0.4l0,0.4l0,0.5l0,0.5l0,0.5l0,0.5
		l0,0.6l0,0.6l0,0.5v26.6h-8.8v-49.8h8.4v3.7l0.8-0.7l0.3-0.3l0.3-0.2l0.3-0.2l0.2-0.2l0.2-0.2l0.2-0.1l0.2-0.1l0.2-0.1l0.2-0.1
		l0.3-0.1l0.3-0.1l0.3-0.1l0.3-0.1l0.4-0.2l0.4-0.2l0.5-0.2l0.5-0.2l0.5-0.2l0.5-0.2l0.5-0.2l0.6-0.1l0.6-0.1l0.6-0.1l0.6-0.1
		l0.6-0.1l0.6-0.1l0.6-0.1l0.6-0.1l0.6,0l0.6,0l0.6,0l0.7,0l0.7,0l0.7,0l0.7,0.1l0.7,0.1l0.7,0.1l0.7,0.1l0.7,0.1l0.6,0.1l0.6,0.2
		l0.6,0.2l0.6,0.2l0.6,0.2l0.6,0.2l0.6,0.2l0.5,0.2l0.5,0.2l0.5,0.3l0.5,0.3l0.5,0.3l0.5,0.3l0.5,0.4l0.5,0.4l0.5,0.4l0.5,0.4
		l0.5,0.4l0.4,0.4l0.4,0.4l0.4,0.4l0.4,0.4l0.3,0.5l0.3,0.4l0.2,0.3l0.2,0.3l0.2,0.4l0.2,0.4l0.2,0.4l0.2,0.4l0.2,0.4l0.2,0.4
		l0.2,0.4l0.2,0.4l0.1,0.4l0.1,0.4l0.1,0.4l0.1,0.4l0.1,0.4l0.1,0.4l0.1,0.4l0.1,0.5l0.1,0.5l0.1,0.5l0.1,0.6l0.1,0.6l0.1,0.6
		l0.1,0.6L253.5,376.2L253.5,376.2z M303.8,366.1v41.4h-8.8v-66.6h8.8v16.8h9v8.4H303.8z M317,357.7h8.4v3.9l0.2-0.2l0.3-0.3
		l0.3-0.3l0.3-0.3l0.3-0.2l0.3-0.2l0.3-0.2l0.3-0.2l0.3-0.2l0.3-0.2l0.4-0.2l0.4-0.2l0.4-0.2l0.5-0.2l0.5-0.2l0.6-0.2l0.6-0.2
		l0.5-0.1l0.5-0.1l0.5-0.1l0.4-0.1l0.4-0.1l0.4-0.1l0.4-0.1l0.4,0l0.4,0l0.4,0l0.4,0l0.4,0l0.4,0l2.4-0.1v8.2l-2.2,0.4l-0.7,0.2
		l-0.7,0.2l-0.7,0.2l-0.6,0.2l-0.6,0.2l-0.5,0.2l-0.5,0.2l-0.5,0.2l-0.5,0.3l-0.4,0.3l-0.4,0.3l-0.4,0.3l-0.4,0.3l-0.4,0.4l-0.3,0.4
		l-0.3,0.4l-0.3,0.4l-0.3,0.5l-0.3,0.5l-0.3,0.5l-0.3,0.5l-0.3,0.5l-0.3,0.6l-0.3,0.6l-0.2,0.6l-0.2,0.6l-0.2,0.7l-0.1,0.7l-0.1,0.7
		l-0.1,0.7v29.4H317V357.7h8.2H317z M352.7,388.4l-0.1-0.9l-0.1-1.3v-28.5h-8.8v28.5l0,0.7l0,0.7l0,0.7l0,0.7l0,0.7l0.1,0.6l0.1,0.6
		l0.1,0.6l0.1,0.5l0.1,0.5l0.1,0.5l0.1,0.5l0.1,0.4l0.1,0.4l0.1,0.4l0.1,0.4l0.1,0.4l0.1,0.4l0.1,0.4l0.2,0.4l0.2,0.4l0.2,0.4
		l0.2,0.4l0.2,0.4l0.2,0.4l0.2,0.4l0.2,0.4l0.2,0.3l0.2,0.3l0.3,0.5l0.3,0.4l0.4,0.4l0.4,0.4l0.4,0.4l0.4,0.4l0.4,0.4l0.5,0.4
		l0.5,0.4l0.5,0.4l0.5,0.4l0.5,0.3l0.5,0.3l0.5,0.3l0.5,0.3l0.5,0.3l0.5,0.2l0.5,0.2l0.6,0.2l0.6,0.2l0.6,0.2l0.6,0.2l0.6,0.2
		l0.6,0.1l0.6,0.1l0.7,0.1l0.7,0.1l0.7,0.1l0.7,0.1l0.7,0l0.7,0l0.7,0l0.6,0l0.6,0l0.6,0l0.6,0l0.6-0.1l0.6-0.1l0.6-0.1l0.6-0.1
		l0.6-0.1l0.6-0.1l0.6-0.1l0.5-0.1l0.5-0.2l0.5-0.2l0.5-0.2l0.5-0.2l0.4-0.2l0.4-0.2l0.3-0.1l0.3-0.1l0.3-0.1l0.2-0.1l0.2-0.1
		l0.2-0.1l0.2-0.1l0.2-0.1l0.2-0.2l0.2-0.2l0.3-0.2l0.3-0.2l0.3-0.3l0.4-0.3v3.3h8.8v-49.8H378v25.1l0,0.7l0,0.7l0,0.6l0,0.6l0,0.6
		l0,0.6l0,0.5l0,0.5l0,0.5l0,0.4l0,0.4l0,0.4l-0.1,0.4l-0.1,0.3l-0.1,0.3l-0.1,0.3l-0.1,0.3l-0.1,0.3l-0.1,0.3l-0.1,0.3l-0.1,0.2
		l-0.1,0.2l-0.1,0.2l-0.1,0.2l-0.1,0.2l-0.1,0.2l-0.1,0.2l-0.1,0.2l-0.1,0.2l-0.1,0.2l-0.1,0.2l-0.2,0.4l-0.2,0.4l-0.2,0.3l-0.2,0.3
		l-0.2,0.3l-0.2,0.3l-0.2,0.3l-0.2,0.2l-0.3,0.2l-0.3,0.2l-0.3,0.2l-0.3,0.2l-0.3,0.2l-0.3,0.2l-0.4,0.2l-0.4,0.2l-0.4,0.2l-0.4,0.2
		l-0.3,0.2l-0.3,0.1l-0.3,0.1l-0.3,0.1l-0.3,0.1l-0.3,0.1l-0.4,0.1l-0.4,0.1l-0.4,0.1l-0.5,0l-0.5,0l-0.6,0l-0.6,0h-0.7l-0.7,0
		l-0.7,0l-0.7-0.1l-0.7-0.1l-0.7-0.1l-0.6-0.1l-0.6-0.1l-0.6-0.2l-0.6-0.2l-0.6-0.2l-0.5-0.3l-0.5-0.3l-0.5-0.3l-0.5-0.4l-0.4-0.4
		l-0.4-0.4l-0.4-0.5l-0.4-0.5l-0.3-0.5l-0.3-0.5l-0.3-0.6l-0.2-0.6l-0.2-0.6l-0.2-0.7l-0.2-0.7l-0.1-0.7l-0.1-0.8l-0.1-0.8
		L352.7,388.4z M402.5,359.5l0.2-0.1l0.2-0.1l0.2-0.1l0.2-0.1l0.2-0.1l0.2-0.1l0.3-0.1l0.3-0.2l0.4-0.2l0.5-0.2l0.5-0.2l0.5-0.2
		l0.5-0.2l0.5-0.2l0.5-0.1l0.5-0.1l0.6-0.1l0.6-0.1l0.6-0.1l0.6-0.1l0.6-0.1l0.6-0.1l0.6,0l0.6,0l0.6,0l0.7,0l0.7,0l0.7,0.1l0.7,0.1
		l0.7,0.1l0.7,0.1l0.7,0.1l0.7,0.1l0.7,0.2l0.6,0.2l0.6,0.2l0.6,0.2l0.6,0.2l0.6,0.2l0.6,0.3l0.5,0.3l0.5,0.3l0.5,0.3l0.4,0.3
		l0.4,0.3l0.4,0.2l0.4,0.3l0.4,0.3l0.3,0.3l0.3,0.3l0.3,0.3l0.3,0.3l0.3,0.3l0.3,0.4l0.3,0.4l0.6,0.8l0.4-0.4l0.4-0.4l0.4-0.4
		l0.3-0.4l0.3-0.3l0.3-0.3l0.3-0.3l0.3-0.3l0.4-0.3l0.4-0.3l0.4-0.2l0.4-0.2l0.4-0.2l0.4-0.2l0.5-0.2l0.5-0.3l0.5-0.3l0.6-0.2
		l0.6-0.2l0.6-0.2l0.6-0.2l0.6-0.2l0.6-0.2l0.6-0.2l0.7-0.1l0.7-0.1l0.7-0.1l0.7-0.1l0.7-0.1l0.7-0.1l0.6,0l0.6,0l1.2,0l1.1,0.1
		l1.1,0.1l1.1,0.2l1.1,0.2l1.1,0.3l1,0.4l1,0.4l0.9,0.4l0.9,0.5l0.9,0.5l0.8,0.6l0.8,0.6l0.7,0.6l0.6,0.7l0.6,0.7l0.5,0.8l0.5,0.8
		l0.5,0.9l0.4,1l0.4,1.1l0.4,1.1l0.3,1.2l0.3,1.2l0.3,1.3l0.2,1.3l0.2,1.4l0.2,1.4l0.1,1.5l0.1,1.5l0,1.8v26.1h-8.8v-26.1l0-1.1
		l0-1.1l-0.1-1l-0.1-1l-0.1-0.9l-0.1-0.9l-0.1-0.8l-0.1-0.8l-0.2-0.7l-0.2-0.7l-0.2-0.7l-0.2-0.6l-0.3-0.6l-0.3-0.6l-0.3-0.5
		L453,369l-0.4-0.5l-0.4-0.4l-0.5-0.4l-0.5-0.4l-0.5-0.3l-0.6-0.3l-0.6-0.3l-0.6-0.2l-0.6-0.2l-0.6-0.2l-0.6-0.1l-0.6-0.1l-0.6-0.1
		l-0.5-0.1l-0.5,0l-0.5,0H444l-0.4,0l-0.4,0l-0.4,0l-0.4,0.1l-0.4,0.1l-0.4,0.1l-0.4,0.1l-0.4,0.1l-0.4,0.1l-0.4,0.1l-0.4,0.2
		l-0.3,0.2l-0.4,0.2l-0.4,0.2l-0.4,0.2l-0.4,0.2l-0.3,0.2l-0.3,0.2l-0.3,0.2l-0.3,0.2l-0.3,0.2l-0.2,0.2l-0.2,0.3l-0.2,0.3l-0.2,0.3
		l-0.2,0.3l-0.2,0.3l-0.2,0.3l-0.2,0.3l-0.2,0.4l-0.2,0.4l-0.1,0.2l-0.1,0.2l-0.1,0.2l-0.1,0.2l-0.1,0.2l-0.1,0.2l-0.1,0.2l-0.1,0.2
		l-0.1,0.2l-0.1,0.2l-0.1,0.2l-0.1,0.3l-0.1,0.3l-0.1,0.3l-0.1,0.3l-0.1,0.3l-0.1,0.3l-0.1,0.3l-0.1,0.4l0,0.4l0,0.4l0,0.4l0,0.5
		l0,0.5l0,0.5l0,0.6l0,0.5v27.4H424V380v-1l0-0.9l-0.1-0.9l-0.1-0.8l-0.1-0.8l-0.1-0.8l-0.1-0.7l-0.2-0.7l-0.2-0.6l-0.2-0.6
		l-0.2-0.6l-0.3-0.6l-0.3-0.5l-0.3-0.5l-0.4-0.5l-0.4-0.5l-0.4-0.5l-0.4-0.4l-0.4-0.4l-0.4-0.4l-0.4-0.4l-0.4-0.3l-0.4-0.3l-0.5-0.3
		l-0.5-0.2l-0.5-0.2l-0.6-0.2l-0.6-0.1l-0.6-0.1l-0.7-0.1l-0.7-0.1l-0.8,0h-0.5l-0.5,0l-0.5,0l-0.5,0l-0.4,0.1l-0.4,0.1l-0.4,0.1
		l-0.4,0.1l-0.4,0.1l-0.4,0.1l-0.4,0.1l-0.4,0.2l-0.4,0.2l-0.4,0.2l-0.4,0.2l-0.4,0.2l-0.4,0.2l-0.3,0.2l-0.3,0.2l-0.3,0.2l-0.3,0.2
		l-0.3,0.2l-0.3,0.2l-0.2,0.3l-0.2,0.3l-0.2,0.3l-0.2,0.3l-0.2,0.3l-0.2,0.3l-0.2,0.3l-0.2,0.4l-0.2,0.4l-0.1,0.2l-0.1,0.3l-0.1,0.3
		l-0.1,0.3l-0.1,0.3l-0.1,0.3l-0.1,0.3l-0.1,0.3l-0.1,0.3l0,0.3l0,0.3l0,0.3l0,0.3l0,0.3l0,0.3l0,0.3l0,0.3l0,0.3l0,0.4l0,0.4l0,0.4
		l0,0.4l0,0.4l0,0.5l0,0.5l0,0.5l0,0.6l0,0.6l0,0.6l0,0.6v25.4h-8.8v-49.8h8.8v3.1l0.4-0.3l0.3-0.2l0.3-0.2l0.2-0.2l0.2-0.2l0.2-0.1
		L402.5,359.5z M490.3,366.1l-0.6,0.2l-0.7,0.2l-0.7,0.3l-0.7,0.3l-0.7,0.4l-0.7,0.4l-0.7,0.4l-0.7,0.5l-0.7,0.5l-0.7,0.6l-0.7,0.6
		l-0.6,0.6l-0.6,0.6l-0.5,0.6l-0.5,0.6l-0.5,0.6l-0.4,0.6l-0.4,0.6l-0.3,0.6l-0.3,0.6l-0.3,0.6l-0.2,0.6l-0.2,0.7l-0.2,0.7l-0.1,0.7
		l-0.1,0.7l-0.1,0.7l0,0.6l0,0.6l0,0.6l0,0.6l0,0.6l0.1,0.6l0.1,0.6l0.1,0.6l0.1,0.6l0.2,0.6l0.2,0.7l0.3,0.7l0.3,0.7l0.3,0.7
		l0.4,0.7l24.5-21.7l-0.8-0.5l-0.8-0.4l-0.7-0.4l-0.7-0.3l-0.6-0.3l-0.6-0.3l-0.6-0.2l-0.6-0.2l-0.6-0.1l-0.6-0.1l-0.6-0.1l-0.6-0.1
		l-0.6-0.1l-0.7,0l-0.7,0l-0.8,0L490.3,366.1z M486.7,398.3l-0.8-0.5l-0.8-0.6l32.5-28.7l-0.8-1l-1-1.1l-1.1-1.1l-1.1-1.1l-1.2-1
		l-1.3-1l-1.3-1l-1.4-0.9l-1.5-0.8l-1.5-0.8l-1.6-0.7l-1.7-0.6l-1.7-0.5l-1.8-0.3l-1.9-0.2l-1.2-0.1l-1.3,0l-1.3,0.1l-1.3,0.2
		l-1.2,0.2l-1.2,0.3l-1.2,0.4l-1.2,0.4l-1.2,0.5l-1.2,0.5l-1.2,0.6l-1.1,0.7l-1.1,0.7l-1.1,0.8l-1,0.8l-1,0.9l-1,1l-0.9,1l-0.9,1
		l-0.8,1.1l-0.8,1.1l-0.7,1.1l-0.7,1.2l-0.6,1.2l-0.6,1.2l-0.5,1.2l-0.4,1.2l-0.4,1.2l-0.3,1.3l-0.2,1.2l-0.2,1.3l-0.1,1.2l0,1.2
		l0.1,1.2l0.1,1.2l0.2,1.2l0.2,1.2l0.3,1.2l0.4,1.2l0.4,1.2l0.5,1.2l0.5,1.2l0.6,1.1l0.7,1.1l0.7,1.1l0.8,1.1l0.8,1l0.9,1l0.9,0.9
		l0.9,0.9l1,0.8l1,0.8l1.1,0.7l1.1,0.7l1.1,0.6l1.2,0.6l1.2,0.5l1.2,0.5l1.2,0.4l1.3,0.4l1.3,0.3l1.3,0.2l1.3,0.2l1.3,0.1l0.9,0l1,0
		l1-0.1l1-0.1l1-0.1l1-0.2l1-0.2l1-0.2l1-0.3l1-0.3l0.9-0.3l0.9-0.3l0.9-0.4l0.9-0.4l0.8-0.4v-10.8l-0.6,0.5l-0.8,0.6l-0.8,0.6
		l-0.8,0.6l-0.9,0.5l-0.9,0.5l-0.9,0.5l-0.9,0.4l-0.9,0.4l-0.9,0.3l-0.9,0.3l-0.9,0.2l-0.9,0.1l-0.9,0.1l-0.9,0l-0.6,0l-0.6,0
		l-0.6-0.1l-0.6-0.1l-0.6-0.1l-0.6-0.1l-0.6-0.2l-0.6-0.2l-0.6-0.2l-0.7-0.3l-0.7-0.3l-0.7-0.4l-0.7-0.4L486.7,398.3z M530.5,379.7
		l0,0.6l0,0.5v26.6h-8.8v-49.8h8.4v3.7l0.8-0.7l0.3-0.3l0.3-0.2l0.3-0.2l0.2-0.2l0.2-0.2l0.2-0.1l0.2-0.1l0.2-0.1l0.2-0.1l0.2-0.1
		l0.3-0.1l0.3-0.1l0.3-0.1l0.4-0.2l0.4-0.2l0.5-0.2l0.5-0.2l0.5-0.2l0.5-0.2l0.5-0.2l0.6-0.1l0.6-0.1l0.6-0.1l0.6-0.1l0.6-0.1
		l0.6-0.1l0.6-0.1l0.6-0.1l0.6,0l0.6,0l0.6,0l0.7,0l0.7,0l0.7,0l0.7,0.1l0.7,0.1l0.7,0.1l0.6,0.1l0.7,0.1l0.6,0.1l0.6,0.2l0.6,0.2
		l0.6,0.2l0.6,0.2l0.6,0.2l0.5,0.2l0.5,0.2l0.5,0.2l0.5,0.3l0.5,0.3l0.5,0.3l0.5,0.3l0.5,0.4l0.5,0.4l0.5,0.4l0.5,0.4l0.4,0.4
		l0.4,0.4l0.4,0.4l0.4,0.4l0.4,0.4l0.3,0.5l0.3,0.4l0.2,0.3l0.2,0.3l0.2,0.4l0.2,0.4l0.2,0.4l0.2,0.4l0.2,0.4l0.2,0.4l0.2,0.4
		l0.2,0.4l0.1,0.4l0.1,0.4l0.1,0.4l0.1,0.4l0.1,0.4l0.1,0.4l0.1,0.4l0.1,0.5l0.1,0.5l0.1,0.5l0.1,0.6l0.1,0.6l0.1,0.6l0.1,0.6l0,0.7
		v0v31.2h-8.8v-28.8l0-1l-0.1-0.9l-0.1-0.9l-0.1-0.8l-0.1-0.8l-0.1-0.7l-0.2-0.7l-0.2-0.7l-0.2-0.6l-0.2-0.6l-0.3-0.6l-0.3-0.5
		l-0.3-0.5l-0.4-0.5l-0.4-0.5l-0.4-0.5l-0.5-0.4l-0.5-0.4l-0.5-0.3l-0.5-0.3l-0.5-0.3l-0.6-0.2l-0.6-0.2l-0.6-0.2l-0.6-0.1l-0.6-0.1
		l-0.7-0.1l-0.7-0.1l-0.7,0l-0.7,0l-0.7,0l-0.7,0l-0.6,0l-0.6,0l-0.5,0l-0.5,0.1l-0.4,0.1l-0.4,0.1l-0.4,0.1l-0.3,0.1l-0.3,0.1
		l-0.3,0.1l-0.3,0.1l-0.3,0.2l-0.3,0.2l-0.4,0.2l-0.4,0.2l-0.4,0.2l-0.4,0.2l-0.3,0.2l-0.3,0.2l-0.3,0.2l-0.3,0.2l-0.3,0.2l-0.3,0.2
		l-0.2,0.2l-0.2,0.3l-0.2,0.3l-0.2,0.3l-0.2,0.3l-0.2,0.3l-0.2,0.3l-0.2,0.4l-0.1,0.2l-0.1,0.2l-0.1,0.2l-0.1,0.2l-0.1,0.2l-0.1,0.2
		l-0.1,0.2l-0.1,0.2l-0.1,0.2l-0.1,0.2l-0.1,0.3l-0.1,0.3l-0.1,0.3l-0.1,0.3l-0.1,0.3l-0.1,0.3l-0.1,0.3l-0.1,0.3l-0.1,0.4l0,0.4
		l0,0.4l0,0.4l0,0.5l0,0.5l0,0.5l0,0.5L530.5,379.7z M578.6,366.1v41.4h-8.8v-66.6h8.8v16.8h9v8.4H578.6z M74.5,316.6H79v-26.9h-4.5
		V316.6z M80.9,316.6h4.5v-26.9h-4.5V316.6z M87.4,316.6H92v-26.9h-4.5V316.6z M93.9,316.6h4.5v-26.9h-4.5V316.6z M100.4,316.6h4.5
		v-26.9h-4.5V316.6z M106.8,316.6h4.5v-26.9h-4.5V316.6z M113.3,316.6h4.5v-26.9h-4.5V316.6z M119.8,316.6h4.5v-26.9h-4.5V316.6z
		 M126.3,316.6h4.5v-26.9h-4.5V316.6z M72.5,407.5V235h60.2v172.5H72.5z"/>
</g>
</svg>

